# Blender 4.3.0
# www.blender.org
mtllib tower.mtl
o Cylinder
v 0.000000 -2.825000 -1.000000
v 0.000000 2.825000 -1.000000
v 0.587785 -2.825000 -0.809017
v 0.587785 2.825000 -0.809017
v 0.951057 -2.825000 -0.309017
v 0.951057 2.825000 -0.309017
v 0.951057 -2.825000 0.309017
v 0.951057 2.825000 0.309017
v 0.587785 -2.825000 0.809017
v 0.587785 2.825000 0.809017
v 0.000000 -2.825000 1.000000
v 0.000000 2.825000 1.000000
v -0.587785 -2.825000 0.809017
v -0.587785 2.825000 0.809017
v -0.951057 -2.825000 0.309017
v -0.951057 2.825000 0.309017
v -0.951057 -2.825000 -0.309017
v -0.951057 2.825000 -0.309017
v -0.587785 -2.825000 -0.809017
v -0.587785 2.825000 -0.809017
v 0.000000 -0.941667 -1.000000
v 0.000000 0.941667 -1.000000
v 0.587785 0.941667 -0.809017
v 0.587785 -0.941667 -0.809017
v 0.951057 0.941667 -0.309017
v 0.951057 -0.941667 -0.309017
v 0.951057 0.941667 0.309017
v 0.951057 -0.941667 0.309017
v 0.587785 0.941667 0.809017
v 0.587785 -0.941667 0.809017
v 0.000000 0.941667 1.000000
v 0.000000 -0.941667 1.000000
v -0.587785 0.941667 0.809017
v -0.587785 -0.941667 0.809017
v -0.951057 0.941667 0.309017
v -0.951057 -0.941667 0.309017
v -0.951057 0.941667 -0.309017
v -0.951057 -0.941667 -0.309017
v -0.587785 0.941667 -0.809017
v -0.587785 -0.941667 -0.809017
vn 0.3090 -0.0000 -0.9511
vn 0.8090 -0.0000 -0.5878
vn 1.0000 -0.0000 -0.0000
vn 0.8090 -0.0000 0.5878
vn 0.3090 -0.0000 0.9511
vn -0.3090 -0.0000 0.9511
vn -0.8090 -0.0000 0.5878
vn -1.0000 -0.0000 -0.0000
vn -0.0000 1.0000 -0.0000
vn -0.8090 -0.0000 -0.5878
vn -0.3090 -0.0000 -0.9511
vn -0.0000 -1.0000 -0.0000
vt 0.409310 0.249500
vt 0.327475 0.498878
vt 0.327475 0.249500
vt 0.245639 0.249500
vt 0.245639 0.498878
vt 0.163803 0.249500
vt 0.163803 0.498878
vt 0.081967 0.249500
vt 0.081967 0.498878
vt 0.000131 0.249500
vt 0.818490 0.498878
vt 0.736654 0.249500
vt 0.818490 0.249500
vt 0.736654 0.498878
vt 0.654818 0.249500
vt 0.654818 0.498878
vt 0.572982 0.249500
vt 0.462168 1.000122
vt 0.314126 0.796359
vt 0.462168 0.748257
vt 0.572982 0.498878
vt 0.491146 0.249500
vt 0.491146 0.498878
vt 0.578952 0.952020
vt 0.726995 0.748257
vt 0.818490 0.874189
vt 0.491146 0.249500
vt 0.409310 0.000122
vt 0.491146 0.000122
vt 0.491146 0.748257
vt 0.409310 0.498878
vt 0.491146 0.498878
vt 0.572982 0.249500
vt 0.572982 0.000122
vt 0.572982 0.748257
vt 0.572982 0.498878
vt 0.654818 0.249500
vt 0.654818 0.000122
vt 0.654818 0.748257
vt 0.654818 0.498878
vt 0.736654 0.249500
vt 0.736654 0.000122
vt 0.736654 0.748257
vt 0.736654 0.498878
vt 0.818490 0.249500
vt 0.818490 0.000122
vt 0.818490 0.748257
vt 0.818490 0.498878
vt 0.081967 0.249500
vt 0.000131 0.000122
vt 0.081967 0.000122
vt 0.081967 0.748257
vt 0.000131 0.498878
vt 0.081967 0.498878
vt 0.163803 0.249500
vt 0.163803 0.000122
vt 0.163803 0.748257
vt 0.163803 0.498878
vt 0.245639 0.249500
vt 0.245639 0.000122
vt 0.245639 0.748257
vt 0.245639 0.498878
vt 0.327475 0.249500
vt 0.327475 0.000122
vt 0.327475 0.748257
vt 0.327475 0.498878
vt 0.409310 0.498878
vt 0.000131 0.498878
vt 0.528375 0.796359
vt 0.553663 0.874189
vt 0.528375 0.952020
vt 0.380332 1.000121
vt 0.314126 0.952020
vt 0.288837 0.874189
vt 0.380332 0.748257
vt 0.793201 0.952020
vt 0.726995 1.000122
vt 0.645159 1.000122
vt 0.553663 0.874189
vt 0.578952 0.796359
vt 0.645159 0.748257
vt 0.793201 0.796359
vt 0.409310 0.249500
vt 0.409310 0.748257
vt 0.000131 0.748257
s 0
usemtl Material
f 22/1/1 4/2/1 23/3/1
f 4/2/2 25/4/2 23/3/2
f 6/5/3 27/6/3 25/4/3
f 8/7/4 29/8/4 27/6/4
f 10/9/5 31/10/5 29/8/5
f 12/11/6 33/12/6 31/13/6
f 14/14/7 35/15/7 33/12/7
f 16/16/8 37/17/8 35/15/8
f 18/18/9 10/19/9 6/20/9
f 18/21/10 39/22/10 37/17/10
f 20/23/11 22/1/11 39/22/11
f 7/24/12 15/25/12 19/26/12
f 40/27/11 1/28/11 19/29/11
f 39/30/11 21/31/11 40/32/11
f 38/33/10 19/29/10 17/34/10
f 37/35/10 40/32/10 38/36/10
f 36/37/8 17/34/8 15/38/8
f 35/39/8 38/36/8 36/40/8
f 34/41/7 15/38/7 13/42/7
f 33/43/7 36/40/7 34/44/7
f 32/45/6 13/42/6 11/46/6
f 31/47/6 34/44/6 32/48/6
f 30/49/5 11/50/5 9/51/5
f 29/52/5 32/53/5 30/54/5
f 28/55/4 9/51/4 7/56/4
f 27/57/4 30/54/4 28/58/4
f 26/59/3 7/56/3 5/60/3
f 25/61/3 28/58/3 26/62/3
f 24/63/2 5/60/2 3/64/2
f 23/65/2 26/62/2 24/66/2
f 1/28/1 24/63/1 3/64/1
f 21/31/1 23/65/1 24/66/1
f 22/1/1 2/67/1 4/2/1
f 4/2/2 6/5/2 25/4/2
f 6/5/3 8/7/3 27/6/3
f 8/7/4 10/9/4 29/8/4
f 10/9/5 12/68/5 31/10/5
f 12/11/6 14/14/6 33/12/6
f 14/14/7 16/16/7 35/15/7
f 16/16/8 18/21/8 37/17/8
f 6/20/9 4/69/9 2/70/9
f 2/70/9 20/71/9 18/18/9
f 18/18/9 16/72/9 14/73/9
f 14/73/9 12/74/9 10/19/9
f 10/19/9 8/75/9 6/20/9
f 6/20/9 2/70/9 18/18/9
f 18/18/9 14/73/9 10/19/9
f 18/21/10 20/23/10 39/22/10
f 20/23/11 2/67/11 22/1/11
f 19/26/12 1/76/12 3/77/12
f 3/77/12 5/78/12 19/26/12
f 5/78/12 7/24/12 19/26/12
f 7/24/12 9/79/12 11/80/12
f 11/80/12 13/81/12 15/25/12
f 15/25/12 17/82/12 19/26/12
f 7/24/12 11/80/12 15/25/12
f 40/27/11 21/83/11 1/28/11
f 39/30/11 22/84/11 21/31/11
f 38/33/10 40/27/10 19/29/10
f 37/35/10 39/30/10 40/32/10
f 36/37/8 38/33/8 17/34/8
f 35/39/8 37/35/8 38/36/8
f 34/41/7 36/37/7 15/38/7
f 33/43/7 35/39/7 36/40/7
f 32/45/6 34/41/6 13/42/6
f 31/47/6 33/43/6 34/44/6
f 30/49/5 32/10/5 11/50/5
f 29/52/5 31/85/5 32/53/5
f 28/55/4 30/49/4 9/51/4
f 27/57/4 29/52/4 30/54/4
f 26/59/3 28/55/3 7/56/3
f 25/61/3 27/57/3 28/58/3
f 24/63/2 26/59/2 5/60/2
f 23/65/2 25/61/2 26/62/2
f 1/28/1 21/83/1 24/63/1
f 21/31/1 22/84/1 23/65/1
o Plane
v -13.463232 -2.574445 13.463232
v 13.463232 -2.574445 13.463232
v -13.463232 -2.574445 -13.463232
v 13.463232 -2.574445 -13.463232
v -13.463232 -2.574445 0.000000
v 0.000000 -2.574445 13.463232
v 13.463232 -2.574445 0.000000
v 0.000000 -2.574445 -13.463232
v -0.009599 -2.509294 0.004301
v -13.463232 -2.574445 6.731616
v 6.731616 -2.574445 13.463232
v 13.463232 -2.574445 -6.731616
v -6.731616 -2.574445 -13.463232
v -13.463232 -2.574445 -6.731616
v -6.731616 -2.574445 13.463232
v 13.463232 -2.574445 6.731616
v 6.731616 -2.574445 -13.463232
v -0.015683 -2.500539 -6.727024
v 0.000000 -2.574445 6.731616
v -6.731657 -2.565208 0.000689
v 6.386013 -2.150091 0.003489
v 6.730051 -2.742945 6.605110
v -6.733029 -2.258235 6.755201
v -6.731616 -2.574445 -6.731616
v 6.725426 -2.556140 -6.730617
v -13.463232 -2.574445 10.097424
v 10.097424 -2.574445 13.463232
v 13.463232 -2.574445 -10.097424
v -10.097424 -2.574445 -13.463232
v -13.463232 -2.574445 -3.365808
v -3.365808 -2.574445 13.463232
v 13.463232 -2.574445 3.365808
v 3.365808 -2.574445 -13.463232
v 0.000000 -2.574445 -10.097424
v -0.000041 -2.565208 3.366497
v -10.097424 -2.574445 0.000000
v 3.263017 -2.316718 -0.000325
v -13.463232 -2.574445 3.365808
v 3.365808 -2.574445 13.463232
v 13.463232 -2.574445 -3.365808
v -3.365808 -2.574445 -13.463232
v -13.463232 -2.574445 -10.097424
v -10.097424 -2.574445 13.463232
v 13.463232 -2.574445 10.097424
v 10.097424 -2.574445 -13.463232
v -0.049325 -2.302995 -3.348446
v 0.000000 -2.574445 10.097424
v -3.375554 -2.476479 0.006749
v 10.077335 -2.551980 0.000477
v 6.729812 -2.742677 3.239308
v 6.731616 -2.574445 10.097424
v 3.365465 -2.611378 6.703887
v 10.097080 -2.611378 6.703887
v -6.731657 -2.565208 3.366497
v -6.733029 -2.258235 10.121009
v -10.098837 -2.258235 6.755201
v -3.365808 -2.574444 6.731616
v -6.731616 -2.574445 -10.097424
v -6.731616 -2.574443 -3.365808
v -10.097424 -2.574445 -6.731616
v -3.375365 -2.518656 -6.728013
v 6.731616 -2.574445 -10.097424
v 6.633708 -2.453578 -3.362629
v 3.337571 -2.490938 -6.727058
v 10.097424 -2.574445 -6.731616
v 10.077336 -2.551982 -3.365331
v 3.318135 -2.469203 -3.360788
v 3.365808 -2.574444 -10.097424
v -3.409409 -2.319922 -3.349369
v -10.097424 -2.574445 -3.365808
v -10.097424 -2.574445 -10.097424
v -3.365808 -2.574445 10.097424
v -10.098837 -2.258235 10.121009
v -10.097424 -2.574445 3.365808
v 10.097424 -2.574445 10.097424
v 3.365808 -2.574445 10.097424
v 3.365465 -2.611378 3.338079
v 10.097080 -2.611378 3.338079
v -3.365996 -2.532308 3.368951
v -3.365808 -2.574445 -10.097424
v 10.097424 -2.574445 -10.097424
v -13.463232 -2.574445 11.780328
v 11.780328 -2.574445 13.463232
v 13.463232 -2.574445 -11.780328
v -11.780328 -2.574445 -13.463232
v -13.463232 -2.574445 -1.682904
v -1.682904 -2.574445 13.463232
v 13.463232 -2.574445 1.682904
v 1.682904 -2.574445 -13.463232
v 0.000000 -2.574445 -11.780328
v -0.000066 -2.559649 1.684008
v -11.780328 -2.574445 0.000000
v 1.682328 -2.571083 0.000217
v -13.463232 -2.574445 5.048712
v 5.048712 -2.574445 13.463232
v 13.463232 -2.574445 -5.048712
v -5.048712 -2.574445 -13.463232
v -13.463232 -2.574445 -8.414520
v -8.414520 -2.574442 13.463232
v 13.463232 -2.574445 8.414520
v 8.414520 -2.574445 -13.463232
v -0.041522 -2.359549 -5.035115
v 0.000000 -2.574445 8.414520
v -5.049426 -2.540184 0.002522
v 8.347281 -2.499254 0.001598
v 6.697427 -2.595993 1.639284
v 6.630545 -3.030750 8.309280
v 1.682904 -2.574445 6.731616
v 8.413372 -2.698027 6.638834
v -6.731682 -2.559649 1.684008
v -6.733543 -2.143304 8.446677
v -11.780750 -2.479942 6.738665
v -5.049135 -2.479942 6.738665
v -6.731616 -2.574445 -11.780328
v -6.731616 -2.574445 -5.048712
v -11.780328 -2.574445 -6.731616
v -5.049288 -2.571083 -6.731399
v 6.731616 -2.574445 -11.780328
v 6.689460 -2.509070 -5.046346
v 1.661621 -2.509846 -6.728056
v 8.414520 -2.574445 -6.731616
v -13.463232 -2.574442 8.414520
v 8.414520 -2.574445 13.463232
v 13.463232 -2.574445 -8.414520
v -8.414520 -2.574445 -13.463232
v -13.463232 -2.574445 -5.048712
v -5.048712 -2.574445 13.463232
v 13.463232 -2.574445 5.048712
v 5.048712 -2.574445 -13.463232
v -0.000373 -2.573342 -8.414460
v -0.000002 -2.573888 5.048753
v -8.414520 -2.574445 0.000000
v 4.981452 -2.499233 0.001598
v -13.463232 -2.574445 1.682904
v 1.682904 -2.574445 13.463232
v 13.463232 -2.574445 -1.682904
v -1.682904 -2.574445 -13.463232
v -13.463232 -2.574445 -11.780328
v -11.780328 -2.574445 13.463232
v 13.463232 -2.574445 11.780328
v 11.780328 -2.574445 -13.463232
v -0.032273 -2.386247 -1.670751
v 0.000000 -2.574445 11.780328
v -1.698353 -2.453949 0.008094
v 11.780328 -2.574445 0.000000
v 6.729504 -2.801764 4.878046
v 6.731616 -2.574445 11.780328
v 5.047564 -2.698027 6.638834
v 11.780328 -2.574445 6.731616
v -6.732040 -2.479381 5.055802
v -6.732038 -2.479942 11.787377
v -8.416448 -2.143304 6.763773
v -1.682904 -2.574445 6.731616
v -6.731616 -2.574445 -8.414520
v -6.731618 -2.573888 -1.682863
v -8.414520 -2.574445 -6.731616
v -1.698214 -2.485075 -6.725844
v 6.731243 -2.573342 -8.414460
v 6.607545 -2.435018 -1.679904
v 5.028002 -2.513199 -6.728273
v 11.780328 -2.574445 -6.731616
v 10.096215 -2.573093 -5.048683
v 10.065241 -2.538456 -1.682139
v 8.347282 -2.499258 -3.364210
v 11.780328 -2.574445 -3.365808
v 3.326687 -2.460640 -5.042538
v 3.324013 -2.509474 -1.680546
v 1.647072 -2.424382 -3.356723
v 4.961225 -2.438526 -3.360878
v 3.365808 -2.574445 -11.780328
v 3.355893 -2.545123 -8.412920
v 1.682904 -2.574445 -10.097424
v 5.048712 -2.574445 -10.097424
v -3.397786 -2.387772 -5.036656
v -3.397853 -2.372876 -1.669737
v -5.064022 -2.485075 -3.360036
v -1.741725 -2.231076 -3.343631
v -10.097424 -2.574445 -5.048712
v -10.097424 -2.574445 -1.682904
v -11.780328 -2.574445 -3.365808
v -8.414520 -2.574445 -3.365808
v -10.097424 -2.574445 -11.780328
v -10.097424 -2.574445 -8.414520
v -11.780328 -2.574445 -10.097424
v -8.414520 -2.574445 -10.097424
v -3.365808 -2.574442 8.414520
v -3.365808 -2.574445 11.780328
v -5.049135 -2.479942 10.104473
v -1.682904 -2.574445 10.097424
v -10.099352 -2.143304 8.446677
v -10.097846 -2.479942 11.787377
v -11.780750 -2.479942 10.104473
v -8.416448 -2.143304 10.129581
v -10.097424 -2.574445 1.682904
v -10.097846 -2.479942 5.055760
v -11.780328 -2.574445 3.365808
v -8.414520 -2.574442 3.365808
v 10.097404 -2.576670 8.412849
v 10.097424 -2.574445 11.780328
v 8.414520 -2.574445 10.097424
v 11.780328 -2.574445 10.097424
v 3.365787 -2.576670 8.412849
v 3.365808 -2.574445 11.780328
v 1.682904 -2.574445 10.097424
v 5.048712 -2.574445 10.097424
v 3.364565 -2.575302 1.681262
v 3.365258 -2.633610 5.004292
v 1.682904 -2.574445 3.365808
v 5.047564 -2.698027 3.273025
v 10.096184 -2.575307 1.681262
v 10.096874 -2.633610 5.004292
v 8.413372 -2.698027 3.273025
v 11.780328 -2.574445 3.365808
v -3.366062 -2.517599 1.687144
v -3.365874 -2.559649 5.049815
v -5.048850 -2.543540 3.368113
v -1.683042 -2.543540 3.368113
v -3.365808 -2.574445 -11.780328
v -3.365808 -2.574445 -8.414520
v -5.048712 -2.574445 -10.097424
v -1.682904 -2.574445 -10.097424
v 10.097424 -2.574445 -11.780328
v 10.097424 -2.574445 -8.414520
v 8.414520 -2.574445 -10.097424
v 11.780328 -2.574445 -10.097424
v 11.780328 -2.574445 -8.414520
v 8.414520 -2.574445 -8.414520
v 8.414520 -2.574445 -11.780328
v -1.682904 -2.574443 -8.414520
v -5.048712 -2.574445 -8.414520
v -5.048712 -2.574445 -11.780328
v -1.682945 -2.565208 5.049401
v -5.048779 -2.559496 5.049827
v -5.048900 -2.532308 1.686047
v 11.780328 -2.574445 5.048711
v 8.412954 -2.742945 4.922206
v 8.393387 -2.588130 1.655669
v 5.047147 -2.742945 4.922206
v 1.725915 -2.122094 5.043808
v 1.682904 -2.574444 1.682904
v 5.048712 -2.574445 11.780328
v 1.682904 -2.574445 11.780328
v 1.682904 -2.574445 8.414520
v 11.780328 -2.574445 11.780328
v 8.414520 -2.574445 11.780328
v 8.414177 -2.611378 8.386791
v -8.415196 -2.423059 5.060003
v -11.780354 -2.568751 5.049137
v -11.780328 -2.574445 1.682904
v -8.415196 -2.423059 11.791619
v -11.780354 -2.568751 11.780752
v -11.781005 -2.423059 8.425812
v -1.682904 -2.574445 11.780328
v -5.048738 -2.568751 11.780752
v -5.049389 -2.423059 8.425812
v -8.414520 -2.574445 -8.414520
v -11.780328 -2.574445 -8.414520
v -11.780328 -2.574445 -11.780328
v -8.414520 -2.574445 -1.682904
v -11.780328 -2.574445 -1.682904
v -11.780328 -2.574445 -5.048712
v -1.726548 -2.310360 -1.665752
v -5.058311 -2.509439 -1.678613
v -5.058269 -2.518656 -5.045109
v 5.042522 -2.556141 -8.413521
v 1.676715 -2.556141 -8.413521
v 1.682904 -2.574445 -11.780328
v 4.951025 -2.453824 -1.679731
v 1.667226 -2.500553 -1.678313
v 1.645215 -2.435461 -5.040568
v 11.780327 -2.574444 -1.682904
v 8.322842 -2.471926 -1.680725
v 8.394428 -2.551977 -5.048234
v 11.780328 -2.574445 -5.048712
v 5.000640 -2.468758 -5.043683
v 5.048712 -2.574445 -11.780328
v -1.726505 -2.319924 -5.032274
v -8.414520 -2.574445 -5.048712
v -8.414520 -2.574445 -11.780328
v -1.682904 -2.574445 8.414520
v -8.417120 -1.992802 8.457902
v -8.414520 -2.574444 1.682904
v 11.780328 -2.574445 8.414520
v 5.048369 -2.611378 8.386791
v 5.027578 -2.588129 1.655669
v 11.780328 -2.574445 1.682904
v -1.683093 -2.532306 1.686047
v -1.682904 -2.574445 -11.780328
v 11.780328 -2.574445 -11.780328
vn -0.0000 1.0000 -0.0000
vn 0.0328 0.9984 0.0463
vn -0.2409 0.9688 0.0588
vn 0.2537 0.9661 -0.0480
vn -0.0055 1.0000 -0.0000
vn 0.0881 0.9922 -0.0881
vn 0.0232 0.9950 -0.0966
vn 0.0238 0.9994 -0.0260
vn 0.0124 0.9998 -0.0132
vn 0.0381 0.9991 -0.0157
vn 0.0149 0.9989 -0.0439
vn 0.0269 0.9986 0.0450
vn -0.0114 0.9999 0.0090
vn -0.0066 0.9999 -0.0109
vn 0.0102 0.9999 -0.0108
vn -0.0784 0.9964 -0.0314
vn -0.0994 0.9949 0.0148
vn 0.0425 0.9980 0.0468
vn 0.0893 0.9954 -0.0335
vn 0.0034 0.9986 0.0529
vn -0.1303 0.9909 -0.0334
vn -0.0528 0.9972 0.0528
vn 0.0680 0.9839 0.1656
vn -0.0000 1.0000 -0.0034
vn 0.0331 0.9955 -0.0889
vn -0.0494 0.9976 -0.0494
vn 0.0013 1.0000 -0.0000
vn -0.1589 0.9873 0.0020
vn 0.2823 0.9244 -0.2564
vn 0.0356 0.9990 0.0272
vn 0.0305 0.9981 0.0528
vn -0.0524 0.9983 0.0272
vn -0.0380 0.9993 -0.0047
vn -0.0067 0.9999 0.0095
vn 0.0052 0.9999 0.0129
vn -0.0007 1.0000 -0.0000
vn 0.0007 1.0000 -0.0007
vn 0.0108 0.9999 -0.0102
vn -0.0200 0.9993 -0.0332
vn 0.0091 0.9986 -0.0528
vn -0.0020 1.0000 -0.0000
vn -0.0313 0.9995 -0.0020
vn 0.0033 0.9999 0.0163
vn -0.0000 1.0000 0.0088
vn -0.0000 1.0000 0.0055
vn 0.0473 0.9976 -0.0507
vn 0.1282 0.9835 -0.1279
vn 0.0558 0.9973 -0.0470
vn -0.0149 0.9999 -0.0033
vn -0.0162 0.9999 0.0033
vn -0.0087 0.9999 0.0067
vn -0.0222 0.9997 0.0133
vn -0.0348 0.9993 -0.0131
vn -0.0272 0.9990 0.0360
vn -0.0340 0.9988 -0.0340
vn -0.0635 0.9976 -0.0261
vn 0.1708 0.9584 0.2287
vn -0.0055 0.9958 0.0914
vn -0.0085 0.9977 0.0679
vn 0.0655 0.9978 0.0133
vn 0.0509 0.9986 -0.0131
vn 0.0262 0.9993 -0.0262
vn 0.0055 1.0000 0.0052
vn -0.0000 1.0000 0.0003
vn 0.0255 0.9654 0.2594
vn 0.0366 0.9989 0.0297
vn 0.0055 1.0000 0.0033
vn 0.0219 0.9998 -0.0000
vn -0.2325 0.9612 0.1488
vn -0.2132 0.9495 -0.2302
vn -0.0203 0.9996 -0.0216
vn -0.0000 0.9984 -0.0558
vn -0.0332 0.9910 -0.1293
vn 0.0664 0.9846 -0.1616
vn -0.0034 1.0000 -0.0000
vn -0.0524 0.9972 -0.0524
vn -0.0338 0.9907 0.1318
vn -0.0339 0.9978 0.0563
vn 0.0339 0.9954 0.0901
vn -0.0561 0.9984 -0.0000
vn -0.0527 0.9986 0.0034
vn -0.0896 0.9960 -0.0000
vn -0.1644 0.9858 0.0334
vn 0.1307 0.9828 0.1307
vn -0.0000 0.9984 0.0563
vn -0.0000 1.0000 0.0034
vn 0.1627 0.9844 -0.0668
vn 0.1309 0.9891 0.0679
vn 0.0562 0.9978 0.0338
vn -0.0003 1.0000 -0.0000
vn -0.0533 0.9981 0.0318
vn -0.0375 0.9974 0.0621
vn 0.0448 0.9954 0.0846
vn -0.0535 0.9986 -0.0003
vn -0.0385 0.9992 -0.0052
vn -0.0821 0.9965 0.0187
vn -0.0333 0.9994 -0.0000
vn -0.0785 0.9967 -0.0201
vn 0.0065 0.9998 -0.0174
vn 0.0131 0.9994 -0.0320
vn 0.0252 0.9994 -0.0252
vn -0.0103 0.9999 -0.0007
vn 0.0055 0.9991 -0.0431
vn -0.0113 0.9996 -0.0276
vn -0.0342 0.9991 0.0241
vn 0.1051 0.9884 -0.1096
vn -0.2412 0.9700 0.0306
vn 0.0715 0.9962 0.0487
vn 0.0673 0.9951 0.0722
vn -0.1587 0.9864 0.0429
vn 0.0445 0.9956 -0.0823
vn 0.0712 0.9969 -0.0331
vn 0.0268 0.9996 -0.0066
vn 0.0210 0.9997 -0.0079
vn 0.0210 0.9997 0.0079
vn 0.0215 0.9997 -0.0107
vn 0.1734 0.9745 -0.1421
vn 0.0382 0.9991 0.0157
vn 0.0251 0.9993 -0.0274
vn 0.0266 0.9991 -0.0320
vn 0.0304 0.9991 -0.0304
vn 0.0008 1.0000 -0.0008
vn 0.0132 0.9998 -0.0124
vn 0.0048 0.9998 -0.0180
vn -0.0187 0.9998 0.0050
vn 0.0090 0.9998 -0.0178
vn -0.0402 0.9962 -0.0776
vn -0.0530 0.9978 -0.0405
vn 0.0423 0.9977 -0.0521
vn -0.0677 0.9954 -0.0677
vn -0.0683 0.9953 0.0683
vn 0.0893 0.9920 0.0893
vn -0.0088 1.0000 -0.0000
vn -0.0216 0.9996 -0.0203
vn -0.0013 1.0000 -0.0013
vn 0.0203 0.9996 -0.0203
vn -0.0000 1.0000 -0.0013
vn -0.0000 0.9998 -0.0216
vn 0.1043 0.9839 0.1450
vn 0.0523 0.9984 0.0217
vn 0.0054 0.9977 0.0677
vn 0.0132 0.9998 0.0137
vn -0.0005 0.9998 0.0218
vn -0.0134 0.9996 0.0245
vn 0.0067 0.9999 0.0087
vn 0.0129 0.9999 0.0067
vn 0.0163 0.9994 0.0299
vn 0.0071 0.9651 0.2617
vn 0.0297 0.9853 0.1681
vn -0.0088 1.0000 -0.0033
vn 0.0676 0.9954 -0.0676
vn 0.0091 0.9965 -0.0829
vn 0.0252 0.9993 -0.0274
vn -0.0000 1.0000 -0.0008
vn 0.0305 0.9995 -0.0078
vn -0.0113 0.9998 -0.0181
vn 0.0054 0.9997 0.0239
vn 0.0090 0.9999 -0.0109
vn -0.0000 0.9998 -0.0174
vn -0.0000 1.0000 -0.0007
vn -0.0311 0.9965 -0.0775
vn -0.0821 0.9961 0.0320
vn 0.0448 0.9978 0.0491
vn -0.0003 1.0000 -0.0003
vn 0.0561 0.9984 -0.0000
vn -0.1629 0.9844 -0.0669
vn -0.1308 0.9827 0.1308
vn 0.0338 0.9907 0.1318
vn -0.0524 0.9971 -0.0558
vn -0.0055 0.9987 -0.0507
vn -0.0203 0.9996 -0.0203
vn 0.0216 0.9996 -0.0203
vn 0.0007 0.9884 0.1519
vn 0.0222 0.9997 0.0133
vn 0.0272 0.9990 0.0360
vn -0.0077 0.9999 0.0140
vn -0.0654 0.9978 0.0133
vn -0.0088 0.9997 0.0245
vn 0.0001 0.9999 0.0163
vn 0.0129 0.9999 0.0052
vn 0.0007 1.0000 -0.0000
vn -0.0000 0.9986 -0.0528
vn -0.0007 0.9991 -0.0431
vn -0.0000 1.0000 -0.0020
vn -0.0000 0.9995 -0.0331
vn 0.0067 0.9999 0.0129
vn 0.0033 1.0000 0.0055
vn 0.0052 1.0000 0.0003
vn -0.0129 0.9999 0.0095
vn 0.0473 0.9978 -0.0470
vn 0.0001 1.0000 0.0088
vn -0.0162 0.9999 -0.0047
vn -0.0129 0.9999 0.0067
vn -0.0067 0.9999 0.0087
vn -0.0351 0.9994 -0.0000
vn -0.0219 0.9998 -0.0000
vn -0.0356 0.9990 0.0272
vn -0.0261 0.9993 -0.0261
vn -0.0509 0.9986 -0.0131
vn -0.0051 0.9985 0.0538
vn -0.0278 0.9973 0.0681
vn -0.0522 0.9984 0.0218
vn 0.0525 0.9983 0.0272
vn 0.0636 0.9976 -0.0261
vn 0.0340 0.9988 -0.0340
vn -0.2461 0.9374 -0.2464
vn -0.2449 0.9381 0.2452
vn 0.2976 0.9546 -0.0125
vn 0.0088 1.0000 0.0020
vn 0.0088 1.0000 -0.0000
vn 0.0005 0.9998 0.0218
vn 0.0013 1.0000 -0.0013
vn -0.0257 0.9984 -0.0495
vn -0.0334 0.9955 -0.0890
vn -0.0664 0.9846 -0.1617
vn 0.0328 0.9911 -0.1290
vn -0.0034 1.0000 -0.0034
vn -0.0558 0.9971 -0.0524
vn -0.1284 0.9834 -0.1284
vn -0.0681 0.9838 0.1657
vn -0.0000 0.9959 0.0902
vn -0.0034 0.9986 0.0529
vn -0.0894 0.9954 -0.0336
vn -0.0562 0.9978 0.0338
vn -0.1310 0.9890 0.0679
vn 0.0528 0.9972 0.0528
vn 0.0527 0.9986 0.0034
vn 0.0034 1.0000 -0.0000
vn 0.1301 0.9909 -0.0334
vn 0.1642 0.9859 0.0334
vn 0.0896 0.9960 -0.0000
vn -0.0055 1.0000 -0.0052
vn -0.0375 0.9982 0.0475
vn -0.0135 0.9962 0.0857
vn 0.0328 0.9968 0.0728
vn -0.0385 0.9992 0.0146
vn -0.0149 0.9997 0.0184
vn -0.0381 0.9973 0.0621
vn -0.0020 0.9995 -0.0311
vn -0.0534 0.9984 -0.0201
vn -0.0990 0.9943 -0.0407
vn -0.0000 0.9999 -0.0109
vn 0.0065 0.9997 -0.0254
vn 0.0102 0.9999 -0.0102
vn -0.0102 0.9996 -0.0275
vn -0.0065 0.9995 -0.0322
vn -0.0187 0.9998 0.0090
vn -0.0342 0.9990 0.0276
vn -0.0112 0.9857 -0.1683
vn 0.0672 0.9967 0.0444
vn 0.0366 0.9985 0.0416
vn 0.0052 0.9935 -0.1138
vn 0.0055 0.9990 -0.0440
vn 0.0449 0.9990 -0.0066
vn 0.0150 0.9999 0.0052
vn 0.0132 0.9999 -0.0000
vn 0.0266 0.9995 -0.0158
vn 0.0215 0.9996 0.0159
vn 0.0305 0.9995 0.0078
vn 0.0108 0.9999 -0.0132
vn 0.0251 0.9992 -0.0306
vn 0.0124 0.9998 -0.0124
vn 0.0008 1.0000 -0.0000
vn 0.0131 0.9996 -0.0262
vn 0.0048 0.9998 -0.0178
vn 0.0238 0.9992 -0.0321
vn -0.0198 0.9951 -0.0974
vn -0.0404 0.9978 -0.0529
vn 0.0234 0.9992 -0.0334
vn -0.0882 0.9922 -0.0882
vn -0.0893 0.9920 0.0893
vn 0.0683 0.9953 0.0683
vn -0.0055 1.0000 0.0033
vn -0.0013 1.0000 -0.0000
vn 0.0495 0.9975 -0.0495
vn 0.0203 0.9996 -0.0216
vn 0.2363 0.9382 -0.2528
vn 0.0085 0.9985 0.0534
vn 0.0087 0.9977 0.0677
vn 0.0282 0.9955 0.0907
vn -0.0005 1.0000 -0.0000
vn 0.0088 0.9989 0.0466
vn 0.0087 0.9999 0.0067
vn 0.0162 0.9999 0.0033
vt 0.011364 0.998467
vt 0.010771 0.999061
vt 0.010771 0.998467
vt 0.006613 0.998467
vt 0.006019 0.999061
vt 0.006019 0.998467
vt 0.006019 0.993716
vt 0.006613 0.994310
vt 0.006019 0.994310
vt 0.011364 0.993716
vt 0.010771 0.994310
vt 0.010771 0.993716
vt 0.008395 0.993716
vt 0.008989 0.994310
vt 0.008395 0.994310
vt 0.008989 0.991340
vt 0.008395 0.991934
vt 0.008395 0.991340
vt 0.011364 0.991340
vt 0.010771 0.991934
vt 0.010771 0.991340
vt 0.003643 0.993716
vt 0.004237 0.994310
vt 0.003643 0.994310
vt 0.004237 0.991340
vt 0.003643 0.991934
vt 0.003643 0.991340
vt 0.006613 0.991340
vt 0.006019 0.991934
vt 0.006019 0.991340
vt 0.004237 0.998467
vt 0.003643 0.999061
vt 0.003643 0.998467
vt 0.004237 0.996092
vt 0.003643 0.996686
vt 0.003643 0.996092
vt 0.006613 0.996092
vt 0.006019 0.996686
vt 0.006019 0.996092
vt 0.008989 0.998467
vt 0.008395 0.999061
vt 0.008395 0.998467
vt 0.008989 0.996092
vt 0.008395 0.996686
vt 0.008395 0.996092
vt 0.011364 0.996092
vt 0.010771 0.996686
vt 0.010771 0.996092
vt 0.010177 0.996092
vt 0.009583 0.996686
vt 0.009583 0.996092
vt 0.010177 0.994904
vt 0.009583 0.995498
vt 0.009583 0.994904
vt 0.011364 0.994904
vt 0.010771 0.995498
vt 0.010771 0.994904
vt 0.007801 0.996092
vt 0.007207 0.996686
vt 0.007207 0.996092
vt 0.007207 0.994904
vt 0.007801 0.995498
vt 0.007207 0.995498
vt 0.008989 0.994904
vt 0.008395 0.995498
vt 0.008395 0.994904
vt 0.007801 0.998467
vt 0.007207 0.999061
vt 0.007207 0.998467
vt 0.007801 0.997279
vt 0.007207 0.997873
vt 0.007207 0.997279
vt 0.008989 0.997279
vt 0.008395 0.997873
vt 0.008395 0.997279
vt 0.005425 0.996092
vt 0.004831 0.996686
vt 0.004831 0.996092
vt 0.004831 0.994904
vt 0.005425 0.995498
vt 0.004831 0.995498
vt 0.006019 0.994904
vt 0.006613 0.995498
vt 0.006019 0.995498
vt 0.003049 0.996092
vt 0.002456 0.996686
vt 0.002456 0.996092
vt 0.003049 0.994904
vt 0.002456 0.995498
vt 0.002456 0.994904
vt 0.003643 0.994904
vt 0.004237 0.995498
vt 0.003643 0.995498
vt 0.003049 0.998467
vt 0.002456 0.999061
vt 0.002456 0.998467
vt 0.003049 0.997279
vt 0.002456 0.997873
vt 0.002456 0.997279
vt 0.004237 0.997279
vt 0.003643 0.997873
vt 0.003643 0.997279
vt 0.005425 0.991340
vt 0.004831 0.991934
vt 0.004831 0.991340
vt 0.005425 0.990152
vt 0.004831 0.990746
vt 0.004831 0.990152
vt 0.006613 0.990152
vt 0.006019 0.990746
vt 0.006019 0.990152
vt 0.002456 0.991340
vt 0.003049 0.991934
vt 0.002456 0.991934
vt 0.003049 0.990152
vt 0.002456 0.990746
vt 0.002456 0.990152
vt 0.003643 0.990152
vt 0.004237 0.990746
vt 0.003643 0.990746
vt 0.003049 0.993716
vt 0.002456 0.994310
vt 0.002456 0.993716
vt 0.002456 0.992528
vt 0.003049 0.993122
vt 0.002456 0.993122
vt 0.004237 0.992528
vt 0.003643 0.993122
vt 0.003643 0.992528
vt 0.009583 0.991340
vt 0.010177 0.991934
vt 0.009583 0.991934
vt 0.010177 0.990152
vt 0.009583 0.990746
vt 0.009583 0.990152
vt 0.011364 0.990152
vt 0.010771 0.990746
vt 0.010771 0.990152
vt 0.007801 0.991340
vt 0.007207 0.991934
vt 0.007207 0.991340
vt 0.007801 0.990152
vt 0.007207 0.990746
vt 0.007207 0.990152
vt 0.008989 0.990152
vt 0.008395 0.990746
vt 0.008395 0.990152
vt 0.007207 0.993716
vt 0.007801 0.994310
vt 0.007207 0.994310
vt 0.007801 0.992528
vt 0.007207 0.993122
vt 0.007207 0.992528
vt 0.008989 0.992528
vt 0.008395 0.993122
vt 0.008395 0.992528
vt 0.009583 0.993716
vt 0.010177 0.994310
vt 0.009583 0.994310
vt 0.009583 0.992528
vt 0.010177 0.993122
vt 0.009583 0.993122
vt 0.010771 0.992528
vt 0.011364 0.993122
vt 0.010771 0.993122
vt 0.004831 0.993716
vt 0.005425 0.994310
vt 0.004831 0.994310
vt 0.004831 0.992528
vt 0.005425 0.993122
vt 0.004831 0.993122
vt 0.006613 0.992528
vt 0.006019 0.993122
vt 0.006019 0.992528
vt 0.005425 0.998467
vt 0.004831 0.999061
vt 0.004831 0.998467
vt 0.005425 0.997279
vt 0.004831 0.997873
vt 0.004831 0.997279
vt 0.006613 0.997279
vt 0.006019 0.997873
vt 0.006019 0.997279
vt 0.010177 0.998467
vt 0.009583 0.999061
vt 0.009583 0.998467
vt 0.010177 0.997279
vt 0.009583 0.997873
vt 0.009583 0.997279
vt 0.011364 0.997279
vt 0.010771 0.997873
vt 0.010771 0.997279
vt 0.010177 0.997873
vt 0.010177 0.996686
vt 0.011364 0.996686
vt 0.008989 0.997873
vt 0.008989 0.996686
vt 0.008989 0.999061
vt 0.005425 0.997873
vt 0.005425 0.996686
vt 0.006613 0.996686
vt 0.004237 0.997873
vt 0.004237 0.996686
vt 0.004237 0.999061
vt 0.005425 0.992528
vt 0.005425 0.991934
vt 0.006613 0.991934
vt 0.004237 0.993122
vt 0.004237 0.991934
vt 0.004237 0.993716
vt 0.005425 0.993716
vt 0.010177 0.992528
vt 0.011364 0.992528
vt 0.008989 0.993122
vt 0.008989 0.991934
vt 0.008989 0.993716
vt 0.010177 0.993716
vt 0.007801 0.993122
vt 0.007801 0.991934
vt 0.006613 0.993122
vt 0.006613 0.993716
vt 0.007801 0.990746
vt 0.008395 0.989558
vt 0.007801 0.989558
vt 0.008989 0.989558
vt 0.006613 0.990746
vt 0.007207 0.989558
vt 0.006613 0.989558
vt 0.010177 0.990746
vt 0.010771 0.989558
vt 0.010177 0.989558
vt 0.011364 0.989558
vt 0.008989 0.990746
vt 0.009583 0.989558
vt 0.010177 0.991340
vt 0.003049 0.992528
vt 0.001862 0.992528
vt 0.001862 0.993122
vt 0.001862 0.991934
vt 0.001862 0.994310
vt 0.001862 0.993716
vt 0.003049 0.990746
vt 0.003049 0.989558
vt 0.003643 0.989558
vt 0.004237 0.990152
vt 0.001862 0.990152
vt 0.001862 0.990746
vt 0.001862 0.989558
vt 0.002456 0.989558
vt 0.001862 0.991340
vt 0.003049 0.991340
vt 0.005425 0.990746
vt 0.006019 0.989558
vt 0.005425 0.989558
vt 0.004831 0.989558
vt 0.004237 0.989558
vt 0.003049 0.997873
vt 0.003049 0.996686
vt 0.001862 0.997873
vt 0.001862 0.997279
vt 0.001862 0.996686
vt 0.001862 0.999061
vt 0.001862 0.998467
vt 0.003049 0.995498
vt 0.003049 0.994310
vt 0.004237 0.994904
vt 0.001862 0.995498
vt 0.001862 0.994904
vt 0.001862 0.996092
vt 0.005425 0.994904
vt 0.006613 0.994904
vt 0.007801 0.997873
vt 0.007801 0.996686
vt 0.006613 0.997873
vt 0.006613 0.999061
vt 0.007801 0.994904
vt 0.010177 0.995498
vt 0.008989 0.995498
vt 0.011364 0.995498
vt 0.007801 0.999061
vt 0.003049 0.999061
vt 0.011364 0.990746
vt 0.007801 0.993716
vt 0.005425 0.999061
vt 0.010177 0.999061
vt 0.011364 0.997873
vt 0.011364 0.999061
vt 0.011364 0.994310
vt 0.011364 0.991934
s 0
usemtl Material.001
f 124/86/13 181/87/13 329/88/13
f 130/89/13 177/90/13 328/91/13
f 327/92/14 49/93/14 184/94/14
f 128/95/13 185/96/13 326/97/13
f 325/98/15 61/99/15 173/100/15
f 147/101/16 188/102/16 324/103/16
f 140/104/13 189/105/13 323/106/13
f 322/107/17 60/108/17 172/109/17
f 151/110/18 192/111/18 321/112/18
f 143/113/13 193/114/13 320/115/13
f 154/116/13 165/117/13 319/118/13
f 155/119/13 196/120/13 318/121/13
f 142/122/19 197/123/19 317/124/19
f 158/125/13 169/126/13 316/127/13
f 159/128/20 200/129/20 315/130/20
f 136/131/13 201/132/13 314/133/13
f 202/134/21 161/135/21 313/136/21
f 203/137/22 204/138/22 312/139/22
f 176/140/13 205/141/13 311/142/13
f 206/143/23 160/144/23 310/145/23
f 309/146/24 107/147/24 208/148/24
f 199/149/25 209/150/25 308/151/25
f 210/152/13 129/153/13 307/154/13
f 211/155/26 212/156/26 306/157/26
f 198/158/27 213/159/27 305/160/27
f 214/161/28 157/162/28 304/163/28
f 303/164/29 109/165/29 216/166/29
f 302/167/30 86/168/30 217/169/30
f 218/170/13 156/171/13 301/172/13
f 219/173/13 220/174/13 300/175/13
f 299/176/13 99/177/13 221/178/13
f 222/179/13 125/180/13 298/181/13
f 223/182/13 224/183/13 297/184/13
f 194/185/13 225/186/13 296/187/13
f 226/188/31 153/189/31 295/190/31
f 227/191/32 228/192/32 294/193/32
f 183/194/13 229/195/13 293/196/13
f 292/197/33 96/198/33 152/199/33
f 231/200/34 232/201/34 291/202/34
f 290/203/35 95/204/35 233/205/35
f 234/206/13 132/207/13 289/208/13
f 288/209/36 114/210/36 236/211/36
f 190/212/37 237/213/37 287/214/37
f 286/215/38 93/216/38 149/217/38
f 239/218/13 240/219/13 285/220/13
f 180/221/13 241/222/13 284/223/13
f 242/224/39 148/225/39 283/226/39
f 243/227/13 244/228/13 282/229/13
f 187/230/13 245/231/13 281/232/13
f 280/233/40 77/234/40 133/235/40
f 247/236/41 248/237/41 279/238/41
f 186/239/42 249/240/42 278/241/42
f 277/242/43 89/243/43 145/244/43
f 276/245/44 118/246/44 252/247/44
f 275/248/13 72/249/13 253/250/13
f 274/251/45 88/252/45 144/253/45
f 273/254/46 119/255/46 256/256/46
f 171/257/47 257/258/47 272/259/47
f 258/260/13 137/261/13 271/262/13
f 259/263/13 260/264/13 270/265/13
f 170/266/48 261/267/48 269/268/48
f 262/269/13 141/270/13 268/271/13
f 263/272/13 264/273/13 267/274/13
f 164/275/13 265/276/13 266/277/13
f 266/277/13 121/278/13 263/272/13
f 201/132/13 263/272/13 105/279/13
f 52/280/13 266/277/13 201/132/13
f 267/274/49 102/281/49 198/158/49
f 161/135/50 198/158/50 65/282/50
f 105/279/13 267/274/13 161/135/13
f 268/271/13 57/283/13 158/125/13
f 264/273/13 158/125/13 102/281/13
f 121/278/13 268/271/13 264/273/13
f 269/268/13 120/284/13 259/263/13
f 197/123/51 259/263/51 101/285/51
f 58/286/52 269/268/52 197/123/52
f 270/265/13 98/287/13 194/185/13
f 157/162/53 194/185/53 64/288/53
f 101/285/54 270/265/54 157/162/54
f 271/262/13 53/289/13 154/116/13
f 260/264/13 154/116/13 98/287/13
f 120/284/13 271/262/13 260/264/13
f 272/259/55 119/255/55 255/290/55
f 193/114/56 255/290/56 97/291/56
f 59/292/57 272/259/57 193/114/57
f 273/254/58 94/293/58 190/212/58
f 153/189/59 190/212/59 63/294/59
f 97/291/60 273/254/60 153/189/60
f 150/295/61 144/253/61 60/108/61
f 94/293/62 274/251/62 150/295/62
f 256/256/63 254/296/63 274/251/63
f 251/297/64 253/250/64 118/246/64
f 93/216/65 275/248/65 251/297/65
f 189/105/13 168/298/13 275/248/13
f 186/239/66 252/247/66 90/299/66
f 62/300/67 276/245/67 186/239/67
f 149/217/68 251/297/68 276/245/68
f 146/301/69 145/244/69 61/99/69
f 90/299/70 277/242/70 146/301/70
f 252/247/71 250/302/71 277/242/71
f 278/241/72 117/303/72 247/236/72
f 188/102/73 247/236/73 92/304/73
f 62/300/74 278/241/74 188/102/74
f 171/257/75 248/237/75 75/305/75
f 148/225/76 171/257/76 59/292/76
f 92/304/77 279/238/77 148/225/77
f 131/306/78 133/235/78 49/93/78
f 248/237/79 131/306/79 75/305/79
f 117/303/80 280/233/80 248/237/80
f 281/232/13 116/307/13 243/227/13
f 135/308/13 243/227/13 79/309/13
f 51/310/13 281/232/13 135/308/13
f 282/229/13 87/311/13 183/194/13
f 175/312/13 183/194/13 46/313/13
f 79/309/13 282/229/13 175/312/13
f 283/226/13 59/292/13 143/113/13
f 244/228/13 143/113/13 87/311/13
f 116/307/13 283/226/13 244/228/13
f 284/223/13 115/314/13 239/218/13
f 123/315/13 239/218/13 67/316/13
f 42/317/13 284/223/13 123/315/13
f 187/230/13 240/219/13 91/318/13
f 163/319/13 187/230/13 51/310/13
f 67/316/13 285/220/13 163/319/13
f 286/215/81 62/300/81 147/101/81
f 91/318/82 286/215/82 147/101/82
f 240/219/83 238/320/83 286/215/83
f 235/321/84 237/213/84 114/210/84
f 96/198/85 287/214/85 235/321/85
f 63/294/86 287/214/86 192/111/86
f 134/322/13 236/211/13 78/323/13
f 50/324/87 288/209/87 134/322/87
f 152/199/88 235/321/88 288/209/88
f 289/208/13 45/325/13 174/326/13
f 236/211/13 174/326/13 78/323/13
f 114/210/13 289/208/13 236/211/13
f 290/203/89 113/327/89 231/200/89
f 83/328/90 290/203/90 231/200/90
f 139/329/91 191/330/91 290/203/91
f 122/331/92 232/201/92 66/332/92
f 41/333/87 291/202/87 122/331/87
f 179/334/93 231/200/93 291/202/93
f 162/335/92 152/199/92 50/324/92
f 66/332/94 292/197/94 162/335/94
f 232/201/95 230/336/95 292/197/95
f 293/196/13 112/337/13 227/191/13
f 127/338/13 227/191/13 71/339/13
f 46/313/13 293/196/13 127/338/13
f 191/330/96 228/192/96 95/204/96
f 167/340/97 191/330/97 55/341/97
f 71/339/98 294/193/98 167/340/98
f 295/190/99 63/294/99 151/110/99
f 228/192/100 151/110/100 95/204/100
f 112/337/101 295/190/101 228/192/101
f 296/187/13 111/342/13 223/182/13
f 196/120/13 223/182/13 100/343/13
f 64/288/13 296/187/13 196/120/13
f 297/184/13 82/344/13 138/345/13
f 156/171/13 138/345/13 54/346/13
f 100/343/13 297/184/13 156/171/13
f 298/181/13 43/347/13 178/348/13
f 224/183/13 178/348/13 82/344/13
f 111/342/13 298/181/13 224/183/13
f 299/176/13 110/349/13 219/173/13
f 172/109/13 219/173/13 76/350/13
f 172/109/102 195/351/102 299/176/102
f 300/175/13 70/352/13 126/353/13
f 132/207/13 126/353/13 45/325/13
f 76/350/13 300/175/13 132/207/13
f 301/172/13 54/346/13 166/354/13
f 220/174/13 166/354/13 70/352/13
f 110/349/13 301/172/13 220/174/13
f 215/355/103 217/169/103 109/165/103
f 88/252/104 302/167/104 215/355/104
f 184/94/105 182/356/105 302/167/105
f 195/351/106 216/166/106 99/177/106
f 60/108/107 303/164/107 195/351/107
f 144/253/108 215/355/108 303/164/108
f 304/163/109 64/288/109 155/119/109
f 99/177/109 304/163/109 155/119/109
f 216/166/110 214/161/110 304/163/110
f 305/160/111 108/357/111 211/155/111
f 200/129/112 211/155/112 104/358/112
f 65/282/113 305/160/113 200/129/113
f 306/157/114 74/359/114 170/266/114
f 160/144/115 170/266/115 58/286/115
f 104/358/116 306/157/116 160/144/116
f 307/154/13 48/360/13 130/89/13
f 212/156/13 130/89/13 74/359/13
f 108/357/13 307/154/13 212/156/13
f 308/151/117 107/147/117 207/361/117
f 173/100/118 207/361/118 77/234/118
f 61/99/119 308/151/119 173/100/119
f 182/356/120 208/148/120 86/168/120
f 49/93/121 309/146/121 182/356/121
f 77/234/122 309/146/122 133/235/122
f 310/145/123 58/286/123 142/122/123
f 208/148/124 142/122/124 86/168/124
f 107/147/125 310/145/125 208/148/125
f 311/142/126 106/362/126 203/137/126
f 89/243/127 311/142/127 203/137/127
f 185/96/13 176/140/13 311/142/13
f 312/139/128 103/363/128 199/149/128
f 145/244/129 199/149/129 61/99/129
f 145/244/130 203/137/130 312/139/130
f 313/136/131 65/282/131 159/128/131
f 204/138/132 159/128/132 103/363/132
f 106/362/133 313/136/133 204/138/133
f 314/133/134 105/279/134 202/134/134
f 205/141/135 202/134/135 106/362/135
f 80/364/13 314/133/13 205/141/13
f 315/130/136 104/358/136 206/143/136
f 209/150/137 206/143/137 107/147/137
f 103/363/138 315/130/138 209/150/138
f 316/127/13 73/365/13 210/152/13
f 213/159/13 210/152/13 108/357/13
f 102/281/13 316/127/13 213/159/13
f 317/124/139 101/285/139 214/161/139
f 217/169/140 214/161/140 109/165/140
f 86/168/141 317/124/141 217/169/141
f 318/121/13 100/343/13 218/170/13
f 221/178/13 218/170/13 110/349/13
f 99/177/13 318/121/13 221/178/13
f 319/118/13 69/366/13 222/179/13
f 225/186/13 222/179/13 111/342/13
f 98/287/13 319/118/13 225/186/13
f 320/115/13 97/291/13 226/188/13
f 229/195/13 226/188/13 112/337/13
f 87/311/13 320/115/13 229/195/13
f 230/336/142 192/111/142 96/198/142
f 233/205/143 230/336/143 113/327/143
f 233/205/144 151/110/144 321/112/144
f 322/107/13 76/350/13 234/206/13
f 237/213/13 234/206/13 114/210/13
f 237/213/145 150/295/145 322/107/145
f 238/320/146 189/105/146 93/216/146
f 115/314/147 323/106/147 238/320/147
f 84/367/13 323/106/13 241/222/13
f 324/103/148 92/304/148 242/224/148
f 245/231/149 242/224/149 116/307/149
f 91/318/150 324/103/150 245/231/150
f 246/368/151 173/100/151 77/234/151
f 249/240/152 246/368/152 117/303/152
f 249/240/153 146/301/153 325/98/153
f 250/302/154 185/96/154 89/243/154
f 118/246/155 326/97/155 250/302/155
f 72/249/13 326/97/13 253/250/13
f 254/296/156 184/94/156 88/252/156
f 257/258/157 254/296/157 119/255/157
f 75/305/158 327/92/158 257/258/158
f 328/91/13 81/369/13 258/260/13
f 261/267/13 258/260/13 120/284/13
f 74/359/13 328/91/13 261/267/13
f 329/88/13 85/370/13 262/269/13
f 265/276/13 262/269/13 121/278/13
f 68/371/13 329/88/13 265/276/13
f 124/86/13 44/372/13 181/87/13
f 130/89/13 48/360/13 177/90/13
f 327/92/159 131/306/159 49/93/159
f 128/95/13 47/373/13 185/96/13
f 325/98/160 146/301/160 61/99/160
f 147/101/161 62/300/161 188/102/161
f 140/104/13 56/374/13 189/105/13
f 322/107/162 150/295/162 60/108/162
f 151/110/163 63/294/163 192/111/163
f 143/113/13 59/292/13 193/114/13
f 154/116/13 53/289/13 165/117/13
f 155/119/13 64/288/13 196/120/13
f 142/122/164 58/286/164 197/123/164
f 158/125/13 57/283/13 169/126/13
f 159/128/165 65/282/165 200/129/165
f 136/131/13 52/280/13 201/132/13
f 202/134/166 105/279/166 161/135/166
f 203/137/167 106/362/167 204/138/167
f 176/140/13 80/364/13 205/141/13
f 206/143/168 104/358/168 160/144/168
f 309/146/169 207/361/169 107/147/169
f 199/149/170 103/363/170 209/150/170
f 210/152/13 73/365/13 129/153/13
f 211/155/171 108/357/171 212/156/171
f 198/158/172 102/281/172 213/159/172
f 214/161/173 101/285/173 157/162/173
f 303/164/174 215/355/174 109/165/174
f 302/167/175 182/356/175 86/168/175
f 218/170/13 100/343/13 156/171/13
f 219/173/13 110/349/13 220/174/13
f 299/176/176 195/351/176 99/177/176
f 222/179/13 69/366/13 125/180/13
f 223/182/13 111/342/13 224/183/13
f 194/185/13 98/287/13 225/186/13
f 226/188/177 97/291/177 153/189/177
f 227/191/177 112/337/177 228/192/177
f 183/194/13 87/311/13 229/195/13
f 292/197/178 230/336/178 96/198/178
f 231/200/179 113/327/179 232/201/179
f 290/203/180 191/330/180 95/204/180
f 234/206/13 76/350/13 132/207/13
f 288/209/181 235/321/181 114/210/181
f 190/212/182 94/293/182 237/213/182
f 286/215/183 238/320/183 93/216/183
f 239/218/13 115/314/13 240/219/13
f 180/221/13 84/367/13 241/222/13
f 242/224/184 92/304/184 148/225/184
f 243/227/13 116/307/13 244/228/13
f 187/230/13 91/318/13 245/231/13
f 280/233/185 246/368/185 77/234/185
f 247/236/186 117/303/186 248/237/186
f 186/239/187 90/299/187 249/240/187
f 277/242/188 250/302/188 89/243/188
f 276/245/189 251/297/189 118/246/189
f 275/248/13 168/298/13 72/249/13
f 274/251/190 254/296/190 88/252/190
f 273/254/191 255/290/191 119/255/191
f 171/257/192 75/305/192 257/258/192
f 258/260/13 81/369/13 137/261/13
f 259/263/13 120/284/13 260/264/13
f 170/266/172 74/359/172 261/267/172
f 262/269/13 85/370/13 141/270/13
f 263/272/13 121/278/13 264/273/13
f 164/275/13 68/371/13 265/276/13
f 266/277/13 265/276/13 121/278/13
f 201/132/13 266/277/13 263/272/13
f 52/280/13 164/275/13 266/277/13
f 267/274/13 264/273/13 102/281/13
f 161/135/193 267/274/193 198/158/193
f 105/279/13 263/272/13 267/274/13
f 268/271/13 141/270/13 57/283/13
f 264/273/13 268/271/13 158/125/13
f 121/278/13 262/269/13 268/271/13
f 269/268/13 261/267/13 120/284/13
f 197/123/194 269/268/194 259/263/194
f 58/286/195 170/266/195 269/268/195
f 270/265/13 260/264/13 98/287/13
f 157/162/196 270/265/196 194/185/196
f 101/285/197 259/263/197 270/265/197
f 271/262/13 137/261/13 53/289/13
f 260/264/13 271/262/13 154/116/13
f 120/284/13 258/260/13 271/262/13
f 272/259/198 257/258/198 119/255/198
f 193/114/199 272/259/199 255/290/199
f 59/292/200 171/257/200 272/259/200
f 273/254/201 256/256/201 94/293/201
f 153/189/202 273/254/202 190/212/202
f 97/291/203 255/290/203 273/254/203
f 150/295/204 274/251/204 144/253/204
f 94/293/205 256/256/205 274/251/205
f 256/256/206 119/255/206 254/296/206
f 251/297/207 275/248/207 253/250/207
f 93/216/208 189/105/208 275/248/208
f 189/105/13 56/374/13 168/298/13
f 186/239/209 276/245/209 252/247/209
f 62/300/210 149/217/210 276/245/210
f 149/217/211 93/216/211 251/297/211
f 146/301/212 277/242/212 145/244/212
f 90/299/213 252/247/213 277/242/213
f 252/247/214 118/246/214 250/302/214
f 278/241/215 249/240/215 117/303/215
f 188/102/216 278/241/216 247/236/216
f 62/300/217 186/239/217 278/241/217
f 171/257/218 279/238/218 248/237/218
f 148/225/219 279/238/219 171/257/219
f 92/304/220 247/236/220 279/238/220
f 131/306/221 280/233/221 133/235/221
f 248/237/222 280/233/222 131/306/222
f 117/303/223 246/368/223 280/233/223
f 281/232/13 245/231/13 116/307/13
f 135/308/13 281/232/13 243/227/13
f 51/310/13 187/230/13 281/232/13
f 282/229/13 244/228/13 87/311/13
f 175/312/13 282/229/13 183/194/13
f 79/309/13 243/227/13 282/229/13
f 283/226/13 148/225/13 59/292/13
f 244/228/13 283/226/13 143/113/13
f 116/307/224 242/224/224 283/226/224
f 284/223/13 241/222/13 115/314/13
f 123/315/13 284/223/13 239/218/13
f 42/317/13 180/221/13 284/223/13
f 187/230/13 285/220/13 240/219/13
f 163/319/13 285/220/13 187/230/13
f 67/316/13 239/218/13 285/220/13
f 286/215/225 149/217/225 62/300/225
f 91/318/150 240/219/150 286/215/150
f 240/219/149 115/314/149 238/320/149
f 235/321/226 287/214/226 237/213/226
f 96/198/227 192/111/227 287/214/227
f 63/294/228 190/212/228 287/214/228
f 134/322/229 288/209/229 236/211/229
f 50/324/230 152/199/230 288/209/230
f 152/199/231 96/198/231 235/321/231
f 289/208/13 132/207/13 45/325/13
f 236/211/13 289/208/13 174/326/13
f 114/210/13 234/206/13 289/208/13
f 290/203/232 233/205/232 113/327/232
f 83/328/233 139/329/233 290/203/233
f 139/329/97 55/341/97 191/330/97
f 122/331/234 291/202/234 232/201/234
f 41/333/98 179/334/98 291/202/98
f 179/334/97 83/328/97 231/200/97
f 162/335/235 292/197/235 152/199/235
f 66/332/236 232/201/236 292/197/236
f 232/201/237 113/327/237 230/336/237
f 293/196/13 229/195/13 112/337/13
f 127/338/13 293/196/13 227/191/13
f 46/313/13 183/194/13 293/196/13
f 191/330/238 294/193/238 228/192/238
f 167/340/239 294/193/239 191/330/239
f 71/339/240 227/191/240 294/193/240
f 295/190/241 153/189/241 63/294/241
f 228/192/242 295/190/242 151/110/242
f 112/337/243 226/188/243 295/190/243
f 296/187/13 225/186/13 111/342/13
f 196/120/13 296/187/13 223/182/13
f 64/288/13 194/185/13 296/187/13
f 297/184/13 224/183/13 82/344/13
f 156/171/13 297/184/13 138/345/13
f 100/343/13 223/182/13 297/184/13
f 298/181/13 125/180/13 43/347/13
f 224/183/13 298/181/13 178/348/13
f 111/342/13 222/179/13 298/181/13
f 299/176/13 221/178/13 110/349/13
f 172/109/13 299/176/13 219/173/13
f 172/109/244 60/108/244 195/351/244
f 300/175/13 220/174/13 70/352/13
f 132/207/13 300/175/13 126/353/13
f 76/350/13 219/173/13 300/175/13
f 301/172/13 156/171/13 54/346/13
f 220/174/13 301/172/13 166/354/13
f 110/349/13 218/170/13 301/172/13
f 215/355/245 302/167/245 217/169/245
f 88/252/246 184/94/246 302/167/246
f 184/94/247 49/93/247 182/356/247
f 195/351/248 303/164/248 216/166/248
f 60/108/249 144/253/249 303/164/249
f 144/253/250 88/252/250 215/355/250
f 304/163/251 157/162/251 64/288/251
f 99/177/252 216/166/252 304/163/252
f 216/166/253 109/165/253 214/161/253
f 305/160/254 213/159/254 108/357/254
f 200/129/255 305/160/255 211/155/255
f 65/282/256 198/158/256 305/160/256
f 306/157/254 212/156/254 74/359/254
f 160/144/257 306/157/257 170/266/257
f 104/358/258 211/155/258 306/157/258
f 307/154/13 129/153/13 48/360/13
f 212/156/13 307/154/13 130/89/13
f 108/357/13 210/152/13 307/154/13
f 308/151/259 209/150/259 107/147/259
f 173/100/260 308/151/260 207/361/260
f 61/99/261 199/149/261 308/151/261
f 182/356/262 309/146/262 208/148/262
f 49/93/263 133/235/263 309/146/263
f 77/234/264 207/361/264 309/146/264
f 310/145/265 160/144/265 58/286/265
f 208/148/266 310/145/266 142/122/266
f 107/147/267 206/143/267 310/145/267
f 311/142/268 205/141/268 106/362/268
f 89/243/268 185/96/268 311/142/268
f 185/96/13 47/373/13 176/140/13
f 312/139/269 204/138/269 103/363/269
f 145/244/270 312/139/270 199/149/270
f 145/244/271 89/243/271 203/137/271
f 313/136/272 161/135/272 65/282/272
f 204/138/273 313/136/273 159/128/273
f 106/362/274 202/134/274 313/136/274
f 314/133/13 201/132/13 105/279/13
f 205/141/275 314/133/275 202/134/275
f 80/364/13 136/131/13 314/133/13
f 315/130/276 200/129/276 104/358/276
f 209/150/277 315/130/277 206/143/277
f 103/363/278 159/128/278 315/130/278
f 316/127/13 169/126/13 73/365/13
f 213/159/13 316/127/13 210/152/13
f 102/281/13 158/125/13 316/127/13
f 317/124/279 197/123/279 101/285/279
f 217/169/280 317/124/280 214/161/280
f 86/168/281 142/122/281 317/124/281
f 318/121/13 196/120/13 100/343/13
f 221/178/13 318/121/13 218/170/13
f 99/177/13 155/119/13 318/121/13
f 319/118/13 165/117/13 69/366/13
f 225/186/13 319/118/13 222/179/13
f 98/287/13 154/116/13 319/118/13
f 320/115/13 193/114/13 97/291/13
f 229/195/13 320/115/13 226/188/13
f 87/311/13 143/113/13 320/115/13
f 230/336/282 321/112/282 192/111/282
f 233/205/283 321/112/283 230/336/283
f 233/205/284 95/204/284 151/110/284
f 322/107/13 172/109/13 76/350/13
f 237/213/13 322/107/13 234/206/13
f 237/213/285 94/293/285 150/295/285
f 238/320/286 323/106/286 189/105/286
f 115/314/13 241/222/13 323/106/13
f 84/367/13 140/104/13 323/106/13
f 324/103/287 188/102/287 92/304/287
f 245/231/288 324/103/288 242/224/288
f 91/318/289 147/101/289 324/103/289
f 246/368/290 325/98/290 173/100/290
f 249/240/291 325/98/291 246/368/291
f 249/240/292 90/299/292 146/301/292
f 250/302/293 326/97/293 185/96/293
f 118/246/208 253/250/208 326/97/208
f 72/249/13 128/95/13 326/97/13
f 254/296/294 327/92/294 184/94/294
f 257/258/295 327/92/295 254/296/295
f 75/305/296 131/306/296 327/92/296
f 328/91/13 177/90/13 81/369/13
f 261/267/13 328/91/13 258/260/13
f 74/359/13 130/89/13 328/91/13
f 329/88/13 181/87/13 85/370/13
f 265/276/13 329/88/13 262/269/13
f 68/371/13 124/86/13 329/88/13
